<svg width="317" height="409" viewBox="0 0 317 409" fill="none" xmlns="http://www.w3.org/2000/svg">
<g clip-path="url(#clip0_144_2)">
<path opacity="0.2" d="M240.297 244.379H203.673L221.652 220.147L222.946 218.402L223.593 217.529L225.223 220.147L240.297 244.379Z" fill="black"/>
<path d="M209.205 399.808L200.138 399.807L195.825 367.356L209.206 367.357L209.205 399.808Z" fill="#FFB8B8"/>
<path d="M211.517 407.963L182.283 407.962V407.619C182.283 406.232 182.577 404.859 183.149 403.578C183.721 402.297 184.559 401.133 185.615 400.153C186.672 399.172 187.926 398.394 189.307 397.864C190.688 397.333 192.167 397.06 193.662 397.06L211.518 397.061L211.517 407.963Z" fill="#2F2E41"/>
<path d="M241.745 399.808L232.678 399.807L228.365 367.356L241.746 367.357L241.745 399.808Z" fill="#FFB8B8"/>
<path d="M244.057 407.963L214.823 407.962V407.619C214.822 406.232 215.117 404.859 215.689 403.578C216.26 402.297 217.099 401.133 218.155 400.153C219.212 399.172 220.466 398.394 221.847 397.864C223.227 397.333 224.707 397.06 226.201 397.06L244.058 397.061L244.057 407.963Z" fill="#2F2E41"/>
<path d="M229.351 387.215L216.722 302.857C216.687 302.623 216.566 302.408 216.38 302.246C216.194 302.085 215.955 301.988 215.701 301.972C215.447 301.955 215.195 302.02 214.986 302.155C214.778 302.291 214.626 302.489 214.556 302.716L206.096 330.161C205.456 332.229 205.246 334.392 205.478 336.532L212.281 386.133C212.326 386.553 212.278 386.976 212.14 387.377C212.003 387.778 211.778 388.149 211.48 388.467C211.182 388.785 210.817 389.042 210.408 389.224C209.999 389.407 209.553 389.509 209.1 389.526L200.44 389.786C199.643 389.816 198.861 389.578 198.237 389.117C197.613 388.657 197.188 388.003 197.04 387.276L186.072 333.647C185.463 330.67 185.333 327.626 185.688 324.614L193.984 253.992L235.31 255.38L235.408 255.563C247.89 278.826 245.874 330.585 243.925 380.64L243.682 386.899C243.655 387.699 243.292 388.458 242.671 389.014C242.051 389.57 241.221 389.879 240.358 389.876L232.648 389.878H232.647C231.844 389.876 231.069 389.605 230.464 389.116C229.859 388.627 229.464 387.952 229.351 387.215Z" fill="#2F2E41"/>
<path d="M227.704 183.386C237.736 183.386 245.868 175.84 245.868 166.531C245.868 157.222 237.736 149.676 227.704 149.676C217.673 149.676 209.541 157.222 209.541 166.531C209.541 175.84 217.673 183.386 227.704 183.386Z" fill="#FFB8B8"/>
<path d="M193.362 258.091C193.049 257.743 192.823 257.335 192.7 256.896C192.577 256.458 192.559 255.999 192.649 255.554L202.755 205.018L205.15 200.29C207.145 196.345 210.449 193.097 214.577 191.02C218.705 188.944 223.441 188.148 228.092 188.75C231.356 189.164 234.479 190.25 237.231 191.93C239.984 193.61 242.296 195.84 243.999 198.457C245.702 201.074 246.752 204.011 247.071 207.054C247.391 210.096 246.973 213.167 245.847 216.04L234.943 243.869L236.8 255.67C236.869 256.109 236.836 256.556 236.702 256.982C236.568 257.407 236.337 257.801 236.025 258.136C235.712 258.472 235.326 258.741 234.891 258.925C234.457 259.109 233.985 259.205 233.507 259.205H195.921C195.433 259.205 194.95 259.106 194.507 258.913C194.065 258.721 193.674 258.44 193.362 258.091Z" fill="#B7AC50"/>
<path d="M275.264 288.806C274.133 288.563 273.073 288.091 272.159 287.426C271.245 286.761 270.499 285.918 269.974 284.957C269.449 283.996 269.158 282.939 269.121 281.862C269.084 280.785 269.301 279.713 269.759 278.722L240.471 217.323L257.225 213.407L280.746 274.992C282.488 275.815 283.845 277.203 284.558 278.893C285.272 280.582 285.293 282.456 284.617 284.158C283.942 285.861 282.616 287.275 280.892 288.131C279.169 288.988 277.166 289.228 275.264 288.806Z" fill="#FFB8B8"/>
<path d="M241.469 228.327C241.002 228.133 240.585 227.848 240.247 227.491C239.91 227.134 239.659 226.713 239.513 226.258L234.392 210.363C233.283 208.162 233.16 205.643 234.048 203.358C234.937 201.073 236.766 199.208 239.134 198.172C241.501 197.135 244.216 197.012 246.681 197.829C249.147 198.646 251.163 200.337 252.287 202.53L262.19 216.408C262.473 216.804 262.66 217.252 262.739 217.721C262.819 218.191 262.788 218.67 262.649 219.128C262.511 219.585 262.268 220.009 261.936 220.371C261.605 220.733 261.194 221.025 260.73 221.227L244.436 228.304C243.972 228.506 243.467 228.612 242.955 228.616C242.443 228.62 241.936 228.522 241.469 228.327Z" fill="#B7AC50"/>
<path d="M153.091 130.807C152.737 131.834 152.63 132.92 152.778 133.989C152.925 135.058 153.324 136.084 153.945 136.994C154.566 137.905 155.395 138.678 156.373 139.26C157.351 139.841 158.454 140.216 159.605 140.359L201.44 195.145L213.645 183.797L168.685 133.513C168.815 131.702 168.225 129.91 167.027 128.476C165.828 127.042 164.105 126.066 162.183 125.733C160.261 125.399 158.273 125.732 156.598 126.667C154.922 127.602 153.674 129.075 153.091 130.807Z" fill="#FFB8B8"/>
<path d="M193.307 186.362L208.202 176.999C208.626 176.733 209.107 176.554 209.612 176.476C210.117 176.398 210.634 176.421 211.128 176.545C211.622 176.669 212.082 176.89 212.476 177.193C212.87 177.497 213.188 177.875 213.41 178.303L221.185 193.303C222.641 195.323 223.175 197.796 222.669 200.181C222.163 202.565 220.659 204.666 218.486 206.023C216.314 207.381 213.65 207.883 211.078 207.42C208.507 206.957 206.239 205.567 204.77 203.555L192.679 191.333C192.333 190.983 192.073 190.568 191.915 190.116C191.757 189.664 191.707 189.186 191.766 188.715C191.826 188.243 191.994 187.788 192.26 187.382C192.526 186.976 192.883 186.628 193.307 186.362Z" fill="#B7AC50"/>
<path d="M85 409H296C296.265 409 296.52 408.891 296.707 408.696C296.895 408.501 297 408.237 297 407.962C297 407.687 296.895 407.423 296.707 407.228C296.52 407.033 296.265 406.924 296 406.924H85C84.7348 406.924 84.4804 407.033 84.2929 407.228C84.1053 407.423 84 407.687 84 407.962C84 408.237 84.1053 408.501 84.2929 408.696C84.4804 408.891 84.7348 409 85 409Z" fill="#CCCCCC"/>
<path d="M222.645 164.312C218.917 168.261 213.795 172.626 208.331 170.667C204.743 169.38 202.76 165.889 203.088 162.333C203.677 155.938 209.04 151.908 214.303 148.545C221.145 144.173 228.803 140.167 237.111 140.155C245.418 140.143 254.246 145.509 254.87 153.196C255.372 159.378 250.722 165.727 253.22 171.477C255.735 177.263 263.867 178.688 270.572 178.234C277.278 177.779 284.546 176.416 290.333 179.592C297.716 183.644 298.941 193.734 295.001 200.804C291.062 207.874 283.439 212.468 275.844 216.165C265.78 221.064 254.535 225.056 243.282 223.579C232.03 222.101 221.212 213.49 221.439 202.947C221.535 198.494 223.497 194.282 225.386 190.187C227.275 186.093 229.157 181.833 229.078 177.379C229.013 173.668 227.224 169.766 223.999 167.738C223.418 167.387 222.971 166.874 222.724 166.273C222.476 165.672 222.44 165.013 222.621 164.392L222.645 164.312Z" fill="#2F2E41"/>
</g>
<defs>
<clipPath id="clip0_144_2">
<rect width="317" height="409" fill="white"/>
</clipPath>
</defs>
</svg>
